<?xml version="1.0" encoding="UTF-8"?>
<svg width="667px" height="667px" viewBox="0 0 667 667" version="1.1" xmlns="http://www.w3.org/2000/svg" xmlns:xlink="http://www.w3.org/1999/xlink">
    <title>submark</title>
    <g stroke="none" stroke-width="1" fill="none" fill-rule="evenodd">
        <g id="submark" fill-rule="nonzero">
            <path d="M333.5,0.58 L333.5,0.57 C517.08,0.57 666.43,149.93 666.43,333.5 C666.43,517.07 517.07,666.42 333.5,666.42 C149.93,666.42 0.59,517.08 0.59,333.5 C0.59,149.92 149.93,0.57 333.5,0.58 Z" id="Shape" fill="#000000"></path>
            <path d="M567.49,328.46 C567.436854,328.000484 567.576687,327.539508 567.876165,327.186958 C568.175644,326.834407 568.607938,326.621866 569.07,326.6 L601.67,320.97 L601.67,320.57 L590.36,321.25 L557.36,321.59 C556.878043,321.647065 556.396234,321.482291 556.050154,321.142044 C555.704074,320.801796 555.531134,320.322858 555.58,319.84 L555.58,317.03 C555.523464,316.54995 555.686978,316.070072 556.024865,315.724418 C556.362751,315.378764 556.838789,315.204388 557.32,315.25 L611.96,314.68 C612.433579,314.629573 612.904051,314.79966 613.235899,315.141269 C613.567748,315.482878 613.72413,315.958081 613.66,316.43 L613.72,322.29 C613.784428,322.765125 613.637705,323.24465 613.318445,323.602375 C612.999184,323.960101 612.539365,324.160196 612.06,324.15 L589,328.48 L575.3,330.63 L575.3,331.11 L589.04,332.97 L612.19,336.74 C612.675513,336.748832 613.135247,336.960147 613.458094,337.322875 C613.78094,337.685602 613.937523,338.166738 613.89,338.65 L613.95,344.51 C614.032437,344.983768 613.890307,345.468965 613.565272,345.823371 C613.240236,346.177777 612.769114,346.361246 612.29,346.32 L557.66,346.89 C557.178043,346.947065 556.696234,346.782291 556.350154,346.442044 C556.004074,346.101796 555.831134,345.622858 555.88,345.14 L555.88,342.33 C555.815061,341.850777 555.970356,341.367895 556.302466,341.016363 C556.634576,340.664832 557.107863,340.482372 557.59,340.52 L590.59,340.18 L601.91,340.62 L601.91,340.22 L569.2,335.22 C568.741701,335.194299 568.312688,334.986477 568.008433,334.642781 C567.704177,334.299085 567.549924,333.848032 567.58,333.39 L567.49,328.46 Z" id="Shape" fill="#FFFFFF"></path>
            <path d="M593.14,404.42 L558.7,396.67 C551.26,395 547.79,391.42 549.91,382.03 C552.03,372.64 556.69,370.89 564.13,372.57 L598.59,380.32 C606.03,382 609.5,385.57 607.38,394.97 C605.26,404.37 600.59,406.09 593.14,404.42 Z M597.09,386.89 L562.65,379.14 C558.89,378.29 556.39,378.8 555.39,383.26 C554.39,387.72 556.39,389.26 560.18,390.1 L594.59,397.84 C598.35,398.69 600.85,398.18 601.85,393.72 C602.85,389.26 600.84,387.73 597.08,386.88 L597.09,386.89 Z" id="Shape" fill="#FFFFFF"></path>
            <path d="M539.24,418.06 C539.394877,417.600981 539.749384,417.23685 540.204091,417.069735 C540.658797,416.902621 541.164735,416.950521 541.58,417.2 L591.13,440.2 C591.578547,440.358689 591.929362,440.714592 592.081575,441.165377 C592.233788,441.616163 592.170534,442.111882 591.91,442.51 L588.12,450.66 C583.69,460.19 578.36,460.81 570.87,457.33 L541.59,443.73 C534.02,440.22 531.06,435.73 535.49,426.21 L539.24,418.06 Z M540.59,428.58 C538.29,433.53 540.26,435.77 544.4,437.7 L573.68,451.32 C577.75,453.21 580.74,453.32 583.03,448.32 L584.72,444.68 L542.23,424.94 L540.59,428.58 Z" id="Shape" fill="#FFFFFF"></path>
            <path d="M552.2,509.16 C551.973622,509.580586 551.565978,509.873312 551.095105,509.953419 C550.624231,510.033526 550.142722,509.892067 549.79,509.57 L548.05,508.32 C547.634646,508.071556 547.353094,507.649439 547.28329,507.170512 C547.213487,506.691585 547.36284,506.206665 547.69,505.85 L555.59,495.25 L539.05,482.93 L533.05,491.04 C532.823622,491.460586 532.415978,491.753312 531.945105,491.833419 C531.474231,491.913526 530.992722,491.772067 530.64,491.45 L528.9,490.16 C528.484646,489.911556 528.203094,489.489439 528.13329,489.010512 C528.063487,488.531585 528.21284,488.046665 528.54,487.69 L534.54,479.58 L518,467.26 L510.14,477.81 C509.913622,478.230586 509.505978,478.523312 509.035105,478.603419 C508.564231,478.683526 508.082722,478.542067 507.73,478.22 L505.99,476.92 C505.574646,476.671556 505.293094,476.249439 505.22329,475.770512 C505.153487,475.291585 505.30284,474.806665 505.63,474.45 L516.46,459.91 C516.708444,459.494646 517.130561,459.213094 517.609488,459.14329 C518.088415,459.073487 518.573335,459.22284 518.93,459.55 L562.75,492.19 C563.157659,492.435551 563.429921,492.854764 563.488469,493.327049 C563.547017,493.799335 563.38536,494.272339 563.05,494.61 L552.2,509.16 Z" id="Shape" fill="#FFFFFF"></path>
            <path d="M495.25,522.44 L472.25,510.44 C471.747791,510.247277 471.382537,509.806475 471.286492,509.2772 C471.190446,508.747926 471.377528,508.206893 471.78,507.85 L474.48,505.45 C475.018674,504.840542 475.92576,504.725017 476.6,505.18 L499.82,517.32 L502.16,515.24 L486.29,497.32 C485.934462,496.992262 485.745056,496.522079 485.774133,496.039406 C485.80321,495.556732 486.04769,495.112687 486.44,494.83 L488.84,492.7 C489.167738,492.344462 489.637921,492.155056 490.120594,492.184133 C490.603268,492.21321 491.047313,492.45769 491.33,492.85 L527.59,533.74 C527.938873,534.063552 528.119809,534.529414 528.08078,535.003624 C528.04175,535.477834 527.78708,535.907843 527.39,536.17 L520.67,542.17 C512.81,549.17 507.67,547.59 502.19,541.41 L497.72,536.41 C493.46,531.54 491.83,527.4 495.25,522.44 Z M502.89,522.1 C498.81,525.72 499.67,528.5 502.7,531.92 L507.17,536.92 C510.17,540.28 512.86,541.52 516.94,537.92 L519.94,535.26 L505.89,519.43 L502.89,522.1 Z" id="Shape" fill="#FFFFFF"></path>
            <path d="M464.52,579.4 C464.79505,579.79018 464.873599,580.285857 464.732657,580.741958 C464.591716,581.19806 464.247222,581.563011 463.8,581.73 L461.14,583.22 C460.767117,583.502733 460.28307,583.593864 459.832901,583.466087 C459.382732,583.338309 459.018743,583.006469 458.85,582.57 L432.14,534.92 C431.851448,534.541901 431.752463,534.052255 431.871489,533.591762 C431.990514,533.131269 432.314372,532.750916 432.75,532.56 L436.46,530.48 C437.228996,529.955997 438.27638,530.147646 438.81,530.91 L460.52,553.23 L468.74,562.15 L469.05,561.88 L462.59,551.62 L448.19,525.94 C447.901448,525.561901 447.802463,525.072255 447.921489,524.611762 C448.040514,524.151269 448.364372,523.770916 448.8,523.58 L451.46,522.09 C451.855224,521.809153 452.356478,521.722668 452.822962,521.854838 C453.289447,521.987009 453.670837,522.323576 453.86,522.77 L480.59,570.42 C480.86144,570.809948 480.939042,571.302847 480.80055,571.757335 C480.662058,572.211823 480.322773,572.577688 479.88,572.75 L476.24,574.75 C475.873252,575.015861 475.413788,575.120302 474.96815,575.039105 C474.522512,574.957909 474.129411,574.698127 473.88,574.32 L452.17,552 L443.95,543.09 L443.64,543.35 L450.12,553.6 L464.52,579.4 Z" id="Shape" fill="#FFFFFF"></path>
            <path d="M371.4,558.18 L358.4,560.18 C357.945651,560.318768 357.452758,560.241514 357.062653,559.970392 C356.672548,559.699269 356.42832,559.264223 356.4,558.79 L356.06,556.65 C355.942921,556.184365 356.039769,555.690773 356.324119,555.303903 C356.608469,554.917032 357.050645,554.677257 357.53,554.65 L375.44,551.84 C375.905966,551.719067 376.401617,551.814365 376.789515,552.09947 C377.177413,552.384574 377.416323,552.829179 377.44,553.31 L385.92,607.31 C386.039894,607.771008 385.941156,608.261543 385.652236,608.640263 C385.363316,609.018982 384.916304,609.243823 384.44,609.25 L381.27,609.75 C380.815651,609.888768 380.322758,609.811514 379.932653,609.540392 C379.542548,609.269269 379.29832,608.834223 379.27,608.36 L371.4,558.18 Z" id="Shape" fill="#FFFFFF"></path>
            <path d="M332.15,612.41 C332.174584,612.887375 331.977534,613.349389 331.615987,613.662078 C331.25444,613.974768 330.768843,614.10315 330.3,614.01 L327.1,613.85 C326.625719,613.895093 326.157049,613.719569 325.829069,613.374019 C325.501089,613.028469 325.35024,612.551285 325.42,612.08 L327.66,567.08 C327.85,563.23 326.93,560.86 322.36,560.63 C317.79,560.4 316.63,562.63 316.44,566.52 L314.2,611.52 C314.221386,611.995665 314.022963,612.454766 313.66186,612.76512 C313.300757,613.075473 312.817047,613.202638 312.35,613.11 L309.14,612.95 C308.665719,612.995093 308.197049,612.819569 307.869069,612.474019 C307.541089,612.128469 307.39024,611.651285 307.46,611.18 L309.7,566.18 C310.08,558.57 313.01,554.54 322.63,555.01 C332.25,555.48 334.76,559.79 334.38,567.41 L332.15,612.41 Z" id="Shape" fill="#FFFFFF"></path>
            <path d="M264.59,575.07 L262.26,546.58 C262.153694,546.055243 262.327575,545.512933 262.719198,545.147827 C263.11082,544.78272 263.663971,544.647225 264.18,544.79 L267.5,545.72 C268.272175,545.877065 268.842411,546.533451 268.89,547.32 L269.75,558.48 L269.93,569.12 L270.39,569.25 L276.08,560.25 L282.59,551.22 C283.024832,550.565377 283.846267,550.286089 284.59,550.54 L287.91,551.47 C288.415231,551.629437 288.805977,552.032927 288.949124,552.543013 C289.092271,553.053098 288.968509,553.600976 288.62,554 L271.79,577.11 L274.12,605.6 C274.209215,606.121319 274.029952,606.652521 273.643097,607.013182 C273.256243,607.373844 272.713796,607.515486 272.2,607.39 L268.88,606.46 C268.131623,606.263342 267.604847,605.593642 267.59,604.82 L266.73,593.66 L266.55,583.02 L266.09,582.89 L260.4,591.89 L253.85,600.97 C253.415168,601.624623 252.593733,601.903911 251.85,601.65 L248.53,600.72 C248.015487,600.571759 247.614905,600.16691 247.472123,599.650855 C247.329341,599.134801 247.464857,598.581624 247.83,598.19 L264.59,575.07 Z" id="Shape" fill="#FFFFFF"></path>
            <path d="M217.01,586.89 C216.834175,587.332562 216.464674,587.669739 216.007908,587.804426 C215.551142,587.939114 215.057815,587.856361 214.67,587.58 L211.82,586.11 C211.367969,585.955722 211.01231,585.601657 210.856004,585.150323 C210.699698,584.698989 210.760203,584.200798 211.02,583.8 L231.58,543.8 C233.34,540.38 233.47,537.8 229.41,535.74 C225.35,533.68 223.35,535.24 221.59,538.67 L201.02,578.67 C200.844175,579.112562 200.474674,579.449739 200.017908,579.584426 C199.561142,579.719114 199.067815,579.636361 198.68,579.36 L195.82,577.89 C195.371067,577.734975 195.017989,577.382686 194.861959,576.934101 C194.70593,576.485517 194.764175,575.990158 195.02,575.59 L215.58,535.59 C219.06,528.81 223.4,526.35 231.96,530.75 C240.52,535.15 241.04,540.11 237.56,546.88 L217.01,586.89 Z" id="Shape" fill="#FFFFFF"></path>
            <path d="M171.42,522.2 L179.76,497.65 C179.875142,497.127144 180.253574,496.701609 180.759408,496.526199 C181.265241,496.350789 181.825877,496.450679 182.24,496.79 L185.02,499.09 C185.702309,499.529146 185.954482,500.405339 185.61,501.14 L177.18,525.92 L179.59,527.92 L194.84,509.5 C195.109751,509.096652 195.54703,508.836479 196.030211,508.791847 C196.513391,508.747216 196.99093,508.922888 197.33,509.27 L199.8,511.27 C200.204761,511.5381 200.466927,511.974535 200.513506,512.457795 C200.560086,512.941054 200.386104,513.419528 200.04,513.76 L165.2,555.85 C164.932885,556.242979 164.500276,556.491726 164.026268,556.524887 C163.55226,556.558048 163.08923,556.371959 162.77,556.02 L155.84,550.32 C147.74,543.62 148.5,538.32 153.77,531.94 L158.07,526.75 C162.15,521.82 165.99,519.58 171.42,522.2 Z M172.92,529.69 C168.72,526.21 166.1,527.48 163.19,531.01 L158.89,536.2 C156.03,539.66 155.21,542.53 159.42,546.01 L162.51,548.57 L176.02,532.25 L172.92,529.69 Z" id="Shape" fill="#FFFFFF"></path>
            <path d="M120.2,515.57 C119.665876,514.98012 119.599994,514.103055 120.04,513.44 L128.21,501.68 L135.64,491.95 L135.39,491.64 L124.26,496.73 L111.04,502.16 C110.307453,502.420393 109.491056,502.163228 109.04,501.53 L106.89,498.83 C106.540124,498.436173 106.414225,497.891602 106.555739,497.38417 C106.697254,496.876739 107.086808,496.47592 107.59,496.32 L140.17,483.75 L156.47,470.75 C156.796415,470.403132 157.264185,470.225598 157.738547,470.268544 C158.21291,470.31149 158.641189,470.570148 158.9,470.97 L160.95,473.54 C161.282679,473.881842 161.439434,474.357824 161.374985,474.830452 C161.310536,475.303081 161.032061,475.719713 160.62,475.96 L144.32,488.96 L124.86,517.96 C124.623906,518.436016 124.156379,518.754192 123.626937,518.799164 C123.097494,518.844136 122.583,518.609375 122.27,518.18 L120.2,515.57 Z" id="Shape" fill="#FFFFFF"></path>
            <path d="M137.35,402.32 C137.779599,402.113068 138.280535,402.115389 138.708199,402.326291 C139.135862,402.537194 139.44265,402.933203 139.54,403.4 L140.23,405.28 C140.457232,405.702875 140.475697,406.207174 140.28,406.645536 C140.084303,407.083897 139.696533,407.406841 139.23,407.52 L67.09,433.98 C66.6604009,434.186932 66.1594648,434.184611 65.7318012,433.973709 C65.3041377,433.762806 64.9973495,433.366797 64.9,432.9 L64.21,431.02 C63.9827683,430.597125 63.9643031,430.092826 64.1600001,429.654464 C64.355697,429.216103 64.7434672,428.893159 65.21,428.78 L137.35,402.32 Z" id="Shape" fill="#FFFFFF"></path>
            <path d="M99.49,338.2 C99.5401647,338.66056 99.3979146,339.121392 99.0968817,339.473544 C98.7958487,339.825696 98.3627565,340.037905 97.9,340.06 L65.29,345.65 L65.29,346.05 L76.59,345.38 L109.59,345.08 C110.071076,345.026795 110.550564,345.192842 110.895706,345.532168 C111.240849,345.871493 111.415021,346.348089 111.37,346.83 L111.37,349.64 C111.428801,350.127753 111.260263,350.615482 110.912872,350.962872 C110.565482,351.310263 110.077753,351.478801 109.59,351.42 L54.96,351.91 C54.4864208,351.960427 54.0159494,351.79034 53.6841007,351.448731 C53.3522521,351.107122 53.1958704,350.631919 53.26,350.16 L53.25,344.32 C53.1852589,343.843104 53.3332601,343.361841 53.6547871,343.003734 C53.9763141,342.645626 54.4389104,342.446822 54.92,342.46 L77.99,338.16 L91.69,336.03 L91.69,335.55 L77.95,333.67 L54.81,329.87 C54.3244869,329.861168 53.8647525,329.649853 53.5419062,329.287125 C53.2190598,328.924398 53.0624766,328.443262 53.11,327.96 L53.06,322.1 C52.987956,321.630904 53.1347914,321.154655 53.4584781,320.807569 C53.7821648,320.460484 54.2470239,320.280819 54.72,320.32 L109.35,319.83 C109.831957,319.772935 110.313766,319.937709 110.659846,320.277956 C111.005926,320.618204 111.178866,321.097142 111.13,321.58 L111.13,324.39 C111.187065,324.871957 111.022291,325.353766 110.682044,325.699846 C110.341796,326.045926 109.862858,326.218866 109.38,326.17 L76.38,326.47 L65.06,326.01 L65.06,326.41 L97.76,331.41 C98.2182987,331.435701 98.6473117,331.643523 98.9515671,331.987219 C99.2558225,332.330915 99.4100759,332.781968 99.38,333.24 L99.49,338.2 Z" id="Shape" fill="#FFFFFF"></path>
            <path d="M73.95,262.2 L108.38,270 C115.81,271.68 119.28,275.26 117.15,284.65 C115.02,294.04 110.35,295.78 102.92,294.1 L68.49,286.32 C61.06,284.64 57.59,281.06 59.72,271.67 C61.85,262.28 66.51,260.51 73.95,262.2 Z M69.95,279.73 L104.38,287.52 C108.14,288.37 110.63,287.87 111.65,283.41 C112.67,278.95 110.65,277.41 106.86,276.57 L72.43,268.77 C68.67,267.92 66.17,268.42 65.17,272.88 C64.17,277.34 66.23,278.88 69.98,279.72 L69.95,279.73 Z" id="Shape" fill="#FFFFFF"></path>
            <path d="M127.87,248.63 C127.713596,249.090267 127.356426,249.454468 126.899294,249.619814 C126.442163,249.785159 125.934653,249.733715 125.52,249.48 L76.01,226.38 C75.5614533,226.221311 75.2106383,225.865408 75.0584251,225.414623 C74.9062119,224.963837 74.969466,224.468118 75.23,224.07 L79.03,215.93 C83.47,206.41 88.8,205.79 96.29,209.29 L125.59,222.96 C133.15,226.49 136.11,230.96 131.67,240.49 L127.87,248.63 Z M126.59,238.11 C128.9,233.17 126.93,230.92 122.79,228.99 L93.48,215.32 C89.41,213.42 86.43,213.32 84.12,218.32 L82.42,221.95 L124.88,241.76 L126.59,238.11 Z" id="Shape" fill="#FFFFFF"></path>
            <path d="M115.03,157.52 C115.256378,157.099414 115.664022,156.806688 116.134895,156.726581 C116.605769,156.646474 117.087278,156.787933 117.44,157.11 L119.17,158.41 C119.58839,158.655902 119.87256,159.078408 119.942553,159.558636 C120.012545,160.038864 119.860795,160.524905 119.53,160.88 L111.66,171.42 L128.18,183.76 L134.23,175.66 C134.456378,175.239414 134.864022,174.946688 135.334895,174.866581 C135.805769,174.786474 136.287278,174.927933 136.64,175.25 L138.38,176.55 C138.796892,176.797653 139.078982,177.221004 139.147013,177.701111 C139.215045,178.181219 139.061677,178.666275 138.73,179.02 L132.73,187.12 L149.25,199.46 L157.13,188.92 C157.358212,188.500945 157.766718,188.210358 158.237445,188.132229 C158.708171,188.0541 159.188648,188.197138 159.54,188.52 L161.28,189.82 C161.698355,190.075924 161.977251,190.508578 162.037601,190.995277 C162.097952,191.481977 161.933177,191.969646 161.59,192.32 L150.74,206.84 C150.494098,207.25839 150.071592,207.54256 149.591364,207.612553 C149.111136,207.682545 148.625095,207.530795 148.27,207.2 L104.5,174.5 C104.093794,174.252713 103.823587,173.832641 103.767004,173.360462 C103.71042,172.888284 103.873724,172.416263 104.21,172.08 L115.03,157.52 Z" id="Shape" fill="#FFFFFF"></path>
            <path d="M172.02,144.32 L195.02,156.32 C195.522209,156.512723 195.887463,156.953525 195.983508,157.4828 C196.079554,158.012074 195.892472,158.553107 195.49,158.91 L192.79,161.3 C192.251326,161.909458 191.34424,162.024983 190.67,161.57 L167.48,149.41 L165.14,151.48 L180.99,169.39 C181.345538,169.717738 181.534944,170.187921 181.505867,170.670594 C181.47679,171.153268 181.23231,171.597313 180.84,171.88 L178.44,174.01 C178.112262,174.365538 177.642079,174.554944 177.159406,174.525867 C176.676732,174.49679 176.232687,174.25231 175.95,173.86 L139.69,132.94 C139.341127,132.616448 139.160191,132.150586 139.19922,131.676376 C139.23825,131.202166 139.49292,130.772157 139.89,130.51 L146.62,124.51 C154.49,117.51 159.62,119.11 165.1,125.3 L169.57,130.3 C173.83,135.2 175.45,139.32 172.02,144.32 Z M164.38,144.65 C168.47,141.04 167.61,138.25 164.58,134.83 L160.11,129.83 C157.11,126.46 154.42,125.22 150.34,128.83 L147.34,131.49 L161.34,147.35 L164.38,144.65 Z" id="Shape" fill="#FFFFFF"></path>
            <path d="M202.79,87.39 C202.519019,86.9987193 202.442827,86.5046339 202.583347,86.0498969 C202.723866,85.5951599 203.065516,85.2301928 203.51,85.06 L206.17,83.57 C206.542883,83.2872673 207.02693,83.1961361 207.477099,83.3239134 C207.927268,83.4516907 208.291257,83.7835308 208.46,84.22 L235.11,131.91 C235.398552,132.288099 235.497537,132.777745 235.378511,133.238238 C235.259486,133.698731 234.935628,134.079084 234.5,134.27 L230.79,136.32 C230.021004,136.844003 228.97362,136.652354 228.44,135.89 L206.76,113.54 L198.56,104.62 L198.25,104.88 L204.72,115.14 L219.08,140.84 C219.368552,141.218099 219.467537,141.707745 219.348511,142.168238 C219.229486,142.628731 218.905628,143.009084 218.47,143.2 L215.81,144.69 C215.414776,144.970847 214.913522,145.057332 214.447038,144.925162 C213.980553,144.792991 213.599163,144.456424 213.41,144.01 L186.75,96.32 C186.479019,95.9287193 186.402827,95.4346339 186.543347,94.9798969 C186.683866,94.5251599 187.025516,94.1601928 187.47,93.99 L191.11,91.99 C191.47514,91.7245943 191.933073,91.6203749 192.377107,91.7016237 C192.821141,91.7828724 193.212499,92.042494 193.46,92.42 L215.14,114.77 L223.35,123.69 L223.66,123.43 L217.19,113.17 L202.79,87.39 Z" id="Shape" fill="#FFFFFF"></path>
            <path d="M295.88,108.74 L308.88,106.74 C309.334349,106.601232 309.827242,106.678486 310.217347,106.949608 C310.607452,107.220731 310.85168,107.655777 310.88,108.13 L311.21,110.27 C311.327079,110.735635 311.230231,111.229227 310.945881,111.616097 C310.661531,112.002968 310.219355,112.242743 309.74,112.27 L291.83,115.06 C291.364034,115.180933 290.868383,115.085635 290.480485,114.80053 C290.092587,114.515426 289.853677,114.070821 289.83,113.59 L281.43,59.59 C281.309699,59.127306 281.409646,58.6349877 281.700851,58.2558342 C281.992057,57.8766807 282.441933,57.6531228 282.92,57.65 L286.09,57.16 C286.544349,57.0212322 287.037242,57.0984857 287.427347,57.3696085 C287.817452,57.6407313 288.06168,58.0757771 288.09,58.55 L295.88,108.74 Z" id="Shape" fill="#FFFFFF"></path>
            <path d="M335.23,54.58 C335.208614,54.1043349 335.407037,53.6452335 335.76814,53.3348801 C336.129243,53.0245267 336.612953,52.8973623 337.08,52.99 L340.28,53.16 C340.754281,53.1149073 341.222951,53.2904306 341.550931,53.6359808 C341.878911,53.981531 342.02976,54.4587153 341.96,54.93 L339.65,99.87 C339.45,103.72 340.38,106.09 344.94,106.33 C349.5,106.57 350.67,104.33 350.86,100.45 L353.17,55.5 C353.148614,55.0243349 353.347037,54.5652335 353.70814,54.2548801 C354.069243,53.9445267 354.552953,53.8173623 355.02,53.91 L358.23,54.08 C358.704281,54.0349073 359.172951,54.2104306 359.500931,54.5559808 C359.828911,54.901531 359.97976,55.3787153 359.91,55.85 L357.59,100.79 C357.2,108.4 354.26,112.43 344.65,111.93 C335.04,111.43 332.53,107.13 332.92,99.52 L335.23,54.58 Z" id="Shape" fill="#FFFFFF"></path>
            <path d="M402.69,91.98 L405.02,120.47 C405.126306,120.994757 404.952425,121.537067 404.560802,121.902173 C404.16918,122.26728 403.616029,122.402775 403.1,122.26 L399.78,121.33 C398.999933,121.164422 398.434106,120.487082 398.41,119.69 L397.54,108.53 L397.36,97.89 L396.89,97.76 L391.2,106.76 L384.65,115.84 C384.212934,116.491714 383.393731,116.770243 382.65,116.52 L379.33,115.59 C378.824769,115.430563 378.434023,115.027073 378.290876,114.516987 C378.147729,114.006902 378.271491,113.459024 378.62,113.06 L395.45,89.95 L393.12,61.46 C393.030785,60.938681 393.210048,60.4074787 393.596903,60.0468175 C393.983757,59.6861563 394.526204,59.5445141 395.04,59.67 L398.36,60.6 C399.138105,60.7688286 399.702346,61.4442704 399.73,62.24 L400.59,73.38 L400.77,84.02 L401.23,84.15 L406.92,75.15 L413.47,66.07 C413.907066,65.4182862 414.726269,65.1397572 415.47,65.39 L418.81,66.32 C419.324513,66.4682411 419.725095,66.8730903 419.867877,67.3891446 C420.010659,67.905199 419.875143,68.4583759 419.51,68.85 L402.69,91.98 Z" id="Shape" fill="#FFFFFF"></path>
            <path d="M450.32,80.22 C450.495825,79.7774377 450.865326,79.4402612 451.322092,79.3055738 C451.778858,79.1708865 452.272185,79.2536392 452.66,79.53 L455.51,81 C455.962031,81.1542778 456.31769,81.508343 456.473996,81.9596768 C456.630302,82.4110105 456.569797,82.9092017 456.31,83.31 L435.69,123.32 C433.93,126.74 433.79,129.32 437.85,131.39 C441.91,133.46 443.91,131.89 445.67,128.47 L466.29,88.47 C466.465825,88.0274377 466.835326,87.6902612 467.292092,87.5555738 C467.748858,87.4208865 468.242185,87.5036392 468.63,87.78 L471.48,89.25 C471.932031,89.4042778 472.28769,89.758343 472.443996,90.2096768 C472.600302,90.6610105 472.539797,91.1592017 472.28,91.56 L451.66,131.56 C448.17,138.34 443.83,140.8 435.27,136.39 C426.71,131.98 426.19,127.02 429.69,120.24 L450.32,80.22 Z" id="Shape" fill="#FFFFFF"></path>
            <path d="M495.81,144.99 L487.44,169.52 C487.32661,170.046546 486.946365,170.475587 486.437259,170.651423 C485.928152,170.827259 485.364176,170.724334 484.95,170.38 L482.17,168.07 C481.487691,167.630854 481.235518,166.754661 481.58,166.02 L490.05,141.25 L487.64,139.25 L472.37,157.65 C472.100249,158.053348 471.66297,158.313521 471.179789,158.358153 C470.696609,158.402784 470.21907,158.227112 469.88,157.88 L467.41,155.88 C467.006652,155.610249 466.746479,155.17297 466.701847,154.689789 C466.657216,154.206609 466.832888,153.72907 467.18,153.39 L502.07,111.39 C502.337115,110.997021 502.769724,110.748274 503.243732,110.715113 C503.71774,110.681952 504.18077,110.868041 504.5,111.22 L511.42,116.96 C519.51,123.67 518.75,128.96 513.42,135.34 L509.12,140.52 C505.08,145.38 501.24,147.62 495.81,144.99 Z M494.32,137.49 C498.52,140.97 501.14,139.71 504.05,136.19 L508.36,131 C511.23,127.54 512.04,124.68 507.85,121.19 L504.76,118.63 L491.23,134.93 L494.32,137.49 Z" id="Shape" fill="#FFFFFF"></path>
            <path d="M547.03,151.69 C547.567606,152.278381 547.633674,153.157908 547.19,153.82 L539,165.57 L531.59,175.32 L531.84,175.63 L542.98,170.56 L556.21,165.15 C556.942478,164.886019 557.761057,165.143871 558.21,165.78 L560.36,168.48 C560.693846,168.887529 560.797843,169.436727 560.63611,169.9381 C560.474376,170.439473 560.069057,170.824375 559.56,170.96 L526.96,183.48 L510.64,196.48 C510.313585,196.826868 509.845815,197.004402 509.371453,196.961456 C508.89709,196.91851 508.468811,196.659852 508.21,196.26 L506.21,193.68 C505.877321,193.338158 505.720566,192.862176 505.785015,192.389548 C505.849464,191.916919 506.127939,191.500287 506.54,191.26 L522.86,178.26 L542.36,149.26 C542.596094,148.783984 543.063621,148.465808 543.593063,148.420836 C544.122506,148.375864 544.637,148.610625 544.95,149.04 L547.03,151.69 Z" id="Shape" fill="#FFFFFF"></path>
            <path d="M529.73,264.93 C529.300401,265.136932 528.799465,265.134611 528.371801,264.923709 C527.944138,264.712806 527.63735,264.316797 527.54,263.85 L526.85,261.97 C526.622768,261.547125 526.604303,261.042826 526.8,260.604464 C526.995697,260.166103 527.383467,259.843159 527.85,259.73 L600.02,233.32 C600.449599,233.113068 600.950535,233.115389 601.378199,233.326291 C601.805862,233.537194 602.11265,233.933203 602.21,234.4 L602.9,236.28 C603.123269,236.702026 603.139585,237.203398 602.944226,237.639048 C602.748868,238.074697 602.363638,238.396004 601.9,238.51 L529.73,264.93 Z" id="Shape" fill="#FFFFFF"></path>
        </g>
    </g>
</svg>